<?xml version="1.0" encoding="UTF-8" standalone="no"?>
<svg
   xmlns:dc="http://purl.org/dc/elements/1.1/"
   xmlns:cc="http://creativecommons.org/ns#"
   xmlns:rdf="http://www.w3.org/1999/02/22-rdf-syntax-ns#"
   xmlns:svg="http://www.w3.org/2000/svg"
   xmlns="http://www.w3.org/2000/svg"
   viewBox="0 0 406.66666 185.33333"
   height="185.33333"
   width="406.66666"
   xml:space="preserve"
   id="svg2"
   version="1.1"><metadata
     id="metadata8"><rdf:RDF><cc:Work
         rdf:about=""><dc:format>image/svg+xml</dc:format><dc:type
           rdf:resource="http://purl.org/dc/dcmitype/StillImage" /></cc:Work></rdf:RDF></metadata><defs
     id="defs6" /><g
     transform="matrix(1.3333333,0,0,-1.3333333,0,185.33333)"
     id="g10"><g
       transform="scale(0.1)"
       id="g12"><path
         id="path14"
         style="fill:#ffffff;fill-opacity:1;fill-rule:evenodd;stroke:none"
         d="m 2373.16,739.488 v -78.976 l 29.5,-3.012 22.5,-1.988 -16.49,-18.524 -21.01,-21.476 25.5,-61.992 25.51,5.968 1.49,136.532 -8.48,47.5 -58.52,-4.032" /><path
         id="path16"
         style="fill:#91877d;fill-opacity:1;fill-rule:evenodd;stroke:none"
         d="m 911.68,1267.5 c -0.66,0 -1.168,-0.16 -1.52,-0.51 1.012,0 1.52,0.16 1.52,0.51" /><path
         id="path18"
         style="fill:#684c2e;fill-opacity:1;fill-rule:evenodd;stroke:none"
         d="m 1471.68,1318.52 c 7.34,-12.7 14.14,-25.36 20.51,-38.01 6.99,-10 12.81,-20.35 17.5,-31.02 5.31,4.34 10.31,8.67 15,13.01 10.66,11.33 24.14,17.66 40.47,18.98 2.03,-8.32 -0.47,-15.31 -7.5,-20.97 -10.67,-16.33 -23.64,-31.02 -38.99,-44.03 -6.99,2.04 -14.33,4.34 -21.99,7.04 -13.67,9.64 -24.34,20.82 -31.99,33.47 -8.36,18.36 -16.37,36.99 -24.03,56.02 -4.64,11.33 -9.33,23.01 -13.98,35 -4.02,5.31 -7.34,11.64 -10,18.98 21.99,-13.01 40.31,-29.14 55,-48.47 m -56.02,71.48 c -4.33,-6.99 -9.33,-13.52 -15,-19.49 h -2.5 c -13.67,-13.36 -26.83,-28.01 -39.49,-44.03 -6.33,-3.98 -11.68,-9.14 -16.01,-15.46 -7.31,-6.02 -13.17,-13.01 -17.5,-21.02 -10.67,-8.01 -18.99,-17.15 -25,-27.5 -8.32,-8.98 -16.33,-17.5 -23.99,-25.51 -11.33,-16.64 -23.01,-33.01 -35,-48.98 -11.33,-13.01 -22.65,-26.17 -33.98,-39.49 2.3,-6.68 5.97,-12.86 10.97,-18.52 0.67,-3.98 -1.17,-6.68 -5.5,-8.01 -8.64,-0.31 -15.98,1.99 -22,6.99 -11.99,-8.32 -23.47,-17.81 -34.49,-28.47 3.01,-6.99 8.01,-13.01 15,-18.01 8.99,0.35 17.35,3.32 25,8.98 14.65,15.67 30.35,30.36 46.99,44.03 13.01,19.65 30.86,33.47 53.52,41.48 l 17.5,7.5 c 7.34,-13.32 10.16,-27.5 8.48,-42.5 l 4.53,-2.5 c 16.33,10.35 34.14,16.99 53.47,20 7.66,0.35 13.17,-2.5 16.53,-8.47 3.98,-8.68 5.47,-17.7 4.49,-27.04 -1.02,-9.64 3.01,-17.96 11.99,-25 7.66,-8.63 17.35,-14.14 28.99,-16.48 15,14.34 29.02,29.34 42.03,45 10.97,10.35 22.97,18.16 35.97,23.52 20.36,4.33 37.66,0.97 52,-10 9.02,-4.69 18.16,-8.87 27.5,-12.5 8,-8.01 17.85,-11.18 29.53,-9.54 4.65,3.01 9.8,6.02 15.47,9.03 5.66,2.65 6.36,6.83 2.03,12.5 -6.37,7.65 -11.53,16.17 -15.51,25.51 -7.34,10 -14.18,20.15 -20.51,30.46 -19.33,19.03 -32.15,40.67 -38.51,65 h 7.03 c 28.98,-24.33 55.15,-49.49 78.47,-75.46 4.69,-6.37 8.36,-13.01 11.02,-20 0.98,-2.04 2.81,-3.01 5.51,-3.01 7.97,13.98 17.81,27.15 29.49,39.49 15.98,19.34 33.48,38.01 52.5,56.02 6.99,6.64 15.31,10.15 25,10.46 1.64,1.68 4.14,1.84 7.5,0.51 -0.66,-3.01 0,-5.66 1.99,-8.01 h 3.52 c -2.35,-12.96 -9.69,-24.33 -22.03,-33.98 -26.33,-19.65 -48.32,-42.34 -65.98,-68.01 -17.66,-25.97 -43.01,-45.31 -76.02,-58.01 -9.33,-0.31 -17.65,1.37 -25,5 -3.32,2.35 -6.99,4.18 -10.97,5.51 -9.69,6.33 -19.85,12.19 -30.51,17.5 -11.02,5.35 -22.66,5.16 -35,-0.51 -46.02,-44.64 -87.85,-90.82 -125.51,-138.468 -3.01,-6.684 -6.99,-13.172 -11.99,-19.492 -18.01,-29.692 -39.84,-58.008 -65.51,-85 -3.67,-8.68 -10.51,-13.52 -20.51,-14.54 l -0.97,2.5 c 7.3,15.668 14.49,31.68 21.48,48.008 24.65,38.012 50.51,75.672 77.5,113.012 l 1.99,5 c 10.67,11.99 20.67,23.52 30,34.49 -10.97,2.66 -21.64,6.17 -31.99,10.51 -17.34,16.02 -25.35,35.35 -23.98,58.01 -1.02,3.32 -3.52,5.82 -7.5,7.5 -9.34,-4.69 -17.85,-10.51 -25.51,-17.5 -11.02,-3.36 -22.19,-3.01 -33.52,0.97 -6.32,4.34 -9.14,9.85 -8.47,16.53 0.66,6.99 -0.86,13.01 -4.53,18.01 h -3.48 c -20.66,-17.7 -38.52,-35.67 -53.52,-54.03 -15.66,-15.66 -34.14,-29.84 -55.5,-42.5 -9.65,-1.99 -19.14,-0.66 -28.48,4.03 -6.02,5 -10.66,10.46 -14.02,16.48 -22.97,-5 -43.83,-13.52 -62.5,-25.51 -7,-3.32 -12.5,-8.01 -16.49,-13.98 -25.35,-26.02 -50.66,-51.99 -76.01,-78.01 -25,-24.648 -48.988,-50.16 -72,-76.48 -4.64,-1.372 -8.98,-1.532 -13,-0.508 l -1.488,4.488 c 13.008,16.02 25.156,32.148 36.488,48.52 2.692,5 5.5,10 8.512,15 30.348,41.32 65.508,79.8 105.508,115.46 13.98,10 29.65,17.7 46.99,23.01 15,-3.01 28.17,-1.17 39.49,5.51 l -0.97,7.5 c 3.32,0 5.82,-1.17 7.5,-3.52 8.32,7.04 16.64,14.54 25,22.5 -1.37,7.35 -6.37,12.86 -15,16.53 h -2.5 l -40,43.98 c -9.69,5 -16.37,11.53 -20,19.49 -13.36,12.35 -23.17,26.37 -29.53,42.04 -8.64,14.64 -13.32,30 -13.99,45.97 5.35,1.99 10.35,1.33 15,-1.99 15,-10.35 26.02,-22.15 33.01,-35.51 11.99,-11.33 20.31,-24.14 25,-38.47 11.64,-15 25.82,-27.35 42.5,-37.04 8.32,-8.63 16.33,-17.5 23.98,-26.48 5,1.33 8.01,4.49 9.03,9.49 17.3,22.66 33.98,45.16 50,67.5 9.65,16.99 21.64,32.66 35.97,46.99 l 35,37.04 c 5,2.3 9.03,5.97 12,10.97 23.67,20 49.53,37.66 77.5,53.01 h 5.5 m 437,-177.5 c 15.66,-25 29.84,-50.82 42.5,-77.5 5.35,-8.01 10,-16.33 14.02,-25 15.66,-31.99 32.81,-63.52 51.48,-94.49 4.34,-2.66 9.34,-3.36 15,-1.99 11.02,3.32 22.66,5.46 35,6.48 -0.97,-6.68 -5.66,-11.48 -13.98,-14.49 -4.69,-1.68 -10.35,-2.5 -16.99,-2.5 -6.68,0.31 -9.53,-2.35 -8.52,-8.01 13.32,-21.02 26.49,-41.68 39.49,-61.988 4.34,-8.672 8.36,-17.352 12,-26.024 9.02,-15.66 15.35,-34.488 19.02,-56.476 3.67,-21.684 -1.17,-26.024 -14.49,-13.012 -9.34,14.34 -18.87,28.672 -28.52,43.012 -26.68,40.968 -52.85,82.34 -78.51,123.978 -10.67,4.69 -20.82,4.69 -30.47,0 -7.7,-1.99 -12.85,-6.33 -15.51,-13.01 -0.35,-6.32 -1.52,-12.3 -3.52,-17.96 -15.31,-1.68 -30.15,0.968 -44.49,7.96 -8.32,9.34 -16.68,18.87 -25,28.52 -6.01,9.65 -13.67,18.01 -23.01,25 -18.32,-26.02 -43.47,-43.012 -75.5,-51.02 -19.65,1.02 -34.81,7.7 -45.47,20 -10.67,12.35 -20.86,24.34 -30.51,36.02 -9.02,7.66 -19.69,10.51 -31.99,8.52 -14.69,-11.02 -27.03,-23.01 -37.03,-36.02 -10,-12.66 -22.66,-23.672 -37.97,-33.012 -19.03,-10 -38.67,-11.168 -59.03,-3.468 -13.32,6.64 -20.31,15.82 -20.97,27.5 15,-0.36 26.99,-5.86 35.97,-16.532 3.68,-3.668 7.66,-4.84 12,-3.468 20.66,8.628 36.36,21.13 47.03,37.5 9.65,6.64 17.65,14.33 23.98,22.96 21.68,15 45.67,20.67 71.99,17.04 15.36,-10 25.67,-22.7 31.02,-38.01 5.98,-9.69 14.34,-17.35 25,-23.01 1.33,-3.012 3.83,-4.84 7.5,-5.512 20.66,1.992 35.82,11.172 45.51,27.502 h 2.5 c 12.3,13.67 28.63,21.33 48.98,23.01 9.65,-7.66 18.17,-16.33 25.51,-26.02 9.65,-13.63 22.34,-25.46 38.01,-35.46 2.97,1.32 4.49,3.32 4.49,5.968 10.66,16.682 27.34,25.862 50,27.502 1.33,3.01 0.98,5.86 -1.02,8.52 -13,23.32 -26.17,46.64 -39.49,70 -15.66,31.64 -32.65,62.81 -51.01,93.47 -0.98,5.36 -2.82,10.51 -5.47,15.51 0.97,6.99 4.49,13.36 10.47,19.03 13.67,5.97 23.67,2.3 30,-11.02 m -817.97,48.98 c -0.35,-11.64 -4.34,-22.14 -12.03,-31.48 -2.66,-3.32 -5.16,-6.99 -7.5,-11.02 -24.648,-21.64 -47.66,-44.8 -68.988,-69.49 -11.684,-15.66 -25,-30.66 -40,-45 -16.012,-16.64 -32.344,-32.81 -48.981,-48.47 -0.671,-1.68 -0.351,-3.01 0.969,-4.03 8.012,3.67 15.668,8.36 23.012,14.03 11.988,7.3 23.988,14.33 36.019,20.97 12.969,3.01 26.637,4.85 40.969,5.51 5,-8.01 7.352,-17.15 7,-27.5 v -3.01 h 6.012 c 8.988,3.67 17.148,7.85 24.488,12.5 8.36,0 15.86,1.53 22.5,4.49 4.69,0.36 8.36,-0.97 11.02,-3.98 0.98,-3.32 0,-5.51 -3.01,-6.48 -14.33,0.97 -26.17,-3.17 -35.51,-12.5 -9.332,-9.34 -20.5,-10.67 -33.469,-4.03 -6.679,3.67 -9.851,8.67 -9.531,15 0,6.68 -2.969,11.53 -8.988,14.49 -13.012,-8.98 -25.82,-18.16 -38.512,-27.5 -5.32,-4.33 -11.332,-7.3 -17.969,-8.98 -16.371,-10.35 -34.339,-15.66 -54.031,-16.02 -20,-16.64 -38.82,-34.332 -56.48,-52.96 -17.66,-18.36 -39.489,-33.36 -65.508,-45 -2.344,0.66 -3.32,1.832 -3.012,3.468 4.031,3.672 6.531,8.012 7.5,13.012 29.031,29.34 57.352,58.16 85,86.48 -5,4.03 -10.5,7.86 -16.48,11.53 -1.02,2.34 -1.68,4.84 -1.989,7.5 6.329,-1.99 12.809,-4.49 19.489,-7.5 5.98,-1.99 10.511,-0.67 13.48,3.98 v 2.5 c 30.352,29.69 57.18,61.02 80.5,94.03 20.36,22.65 40,44.8 59.031,66.48 18.981,25 42.969,43.16 71.989,54.49 2.34,3.01 5.16,4.49 8.48,4.49 l 4.53,-10" /><path
         id="path20"
         style="fill:#5cabde;fill-opacity:1;fill-rule:evenodd;stroke:none"
         d="m 1431.17,753.98 c 3.32,0 28.52,-0.152 75.51,-0.46 46.99,0 95.66,-1.68 145.98,-5 50.35,-3.008 82.5,-8.68 96.52,-17.04 3.67,-0.308 1.33,-3.16 -6.99,-8.468 -8.36,-5.352 -44.69,-9.852 -109.03,-13.524 -28.67,-0.968 -63.98,-1.828 -105.97,-2.5 -41.68,-0.66 -79.03,-2.34 -112.03,-5 -32.97,-2.648 -50.47,-7.5 -52.5,-14.488 4.33,-9.34 49.53,-18.012 135.5,-26.02 86.02,-8.32 188.17,-17.5 306.53,-27.5 118.32,-10 227.97,-22.14 328.98,-36.48 101.02,-14.34 168.67,-32.148 203.01,-53.52 10.66,-8.32 6.99,-15.82 -11.02,-22.5 -18.32,-6.64 -55,-5.968 -110,2.04 -52.65,9.64 -91.64,13.98 -116.99,12.96 -25.35,-0.968 -71.99,-8.82 -140,-23.468 -31.33,-5 -63.16,-5 -95.51,0 -32.65,5 -54.84,8.976 -66.48,11.988 -20.66,5 -51.99,3.98 -94.02,-3.012 -33.99,-4.648 -55.67,-1.476 -65,9.492 -9.65,11.372 -3.64,18.52 18,21.532 141.33,6.636 213.52,14.648 216.53,23.976 3.32,9.34 -31.68,19.34 -105,30 -73.36,10.672 -154.03,21.532 -242.03,32.5 -87.97,11.332 -152.5,22.352 -193.48,33.012 -12.66,3.672 -19.18,7.5 -19.49,11.48 V 685 c 4.33,9.648 31.13,18.012 80.47,25 49.02,6.988 102.69,11.02 161.01,11.988 70,0.352 117.35,1.992 141.99,5 24.69,3.012 0.51,7.852 -72.5,14.492 -73.32,6.02 -123.98,9.692 -151.99,11.02 -28.01,1.328 -41.33,1.84 -40,1.48" /><path
         id="path22"
         style="fill:#302823;fill-opacity:1;fill-rule:evenodd;stroke:none"
         d="m 1444.69,745 c 8.63,0.66 14.49,3.52 17.5,8.52 -30,27.96 -59.53,56.48 -88.52,85.46 -28.98,29.34 -65,54.34 -108.01,75 -25.31,12.04 -51.64,19.848 -78.98,23.52 l -15,1.02 c -21.99,0.66 -41.99,-4.34 -60,-15 -40.35,-26.372 -75.51,-55.2 -105.51,-86.532 -24.65,-31.636 -56.17,-59.84 -94.49,-84.488 -10,-6.68 -9.34,-8.32 1.992,-5 38.668,19.34 68.988,43.16 91.018,71.48 22.97,27.04 49.65,52.348 80,76.02 14.65,19.34 37.3,29.84 67.97,31.48 44.33,-3.98 82.5,-16.48 114.53,-37.5 36.99,-23.32 70.66,-48.468 100.97,-75.46 22.66,-24.032 48.17,-46.84 76.53,-68.52 m 376.48,-112.5 c -3.01,-1.02 -7.65,1.02 -13.98,6.02 -6.37,4.64 -9.03,8.32 -8.01,10.968 26.99,30 57.34,64.492 90.98,103.524 33.67,38.976 71.83,71.328 114.53,96.988 42.65,25.66 91.13,33.52 145.47,23.52 22.34,-6.372 41.17,-19.692 56.52,-40 15.31,-20.668 27.81,-38.872 37.5,-54.54 19.65,-25 38.32,-50.308 55.98,-75.968 18,-40.352 44.68,-76.024 80,-106.992 13.36,-12.7 12.5,-15.508 -2.5,-8.52 -42,30 -73.48,66.48 -94.5,109.488 -17.34,28.364 -36.48,55.672 -57.5,81.992 -6.99,11.68 -17.14,26.68 -30.5,45 -13.32,18.36 -29.14,28.68 -47.5,31.02 -76.64,-3.98 -138.64,-31.328 -185.98,-81.988 -47.34,-50.672 -94.18,-97.5 -140.51,-140.512" /><path
         id="path24"
         style="fill:#312925;fill-opacity:1;fill-rule:nonzero;stroke:none"
         d="M 107.461,150.738 H 44.9609 V 6.98828 H -0.0390625 V 362.461 H 99.6484 c 34.7616,0 61.1326,-9.063 79.0626,-27.191 17.891,-18.122 26.879,-44.68 26.879,-79.68 0,-22 -4.852,-41.18 -14.539,-57.5 -9.68,-16.371 -23.391,-28.711 -41.09,-37.039 L 218.711,9.96094 V 6.98828 H 170.738 Z M 44.9609,189.18 h 54.2188 c 18.6293,0 33.5193,5.98 44.6913,17.968 11.129,12.071 16.719,28.204 16.719,48.442 0,45.5 -20.629,68.281 -61.8791,68.281 h -53.75 z M 477.621,362.461 V 109.801 C 477.191,76.0508 467.379,49.6484 448.238,30.5898 429.059,11.6016 402.301,2.14844 367.93,2.14844 c -35.121,0 -61.989,9.30076 -80.629,27.97266 C 268.75,48.75 259.34,75.3086 259.02,109.801 v 252.66 h 44.531 V 111.52 c 0,-23.9809 5.039,-41.8286 15.16,-53.5903 10.199,-11.8008 26.598,-17.6602 49.219,-17.6602 22.808,0 39.261,5.8594 49.371,17.6602 10.199,11.7617 15.32,29.6094 15.32,53.5903 v 250.941 z" /><path
         id="path26"
         style="fill:#312925;fill-opacity:1;fill-rule:nonzero;stroke:none"
         d="M 717.301,171.371 H 591.52 V 45.2695 H 738.09 V 6.98828 H 546.84 V 362.461 h 188.75 v -38.59 H 591.52 V 209.648 h 125.781 z" /><path
         id="path28"
         style="fill:#312925;fill-opacity:1;fill-rule:nonzero;stroke:none"
         d="M 1017.85,119.801 C 1015.86,81.6797 1005.12,52.5 985.66,32.3008 966.289,12.1914 938.828,2.14844 903.32,2.14844 c -35.621,0 -63.98,13.51176 -85,40.62106 -20.941,27.0703 -31.41,63.7895 -31.41,110.1605 v 64.531 c 0,46.25 10.789,82.738 32.352,109.527 21.558,26.883 50.968,40.313 88.277,40.313 34.262,0 60.781,-10.313 79.531,-30.93 18.83,-20.551 29.1,-49.922 30.78,-88.133 h -45.151 c -2,28.953 -8.129,49.571 -18.437,61.883 -10.242,12.379 -25.782,18.59 -46.723,18.59 -24.301,0 -42.93,-9.492 -55.937,-28.441 C 838.551,281.289 832.07,253.551 832.07,216.988 V 151.84 c 0,-36.059 6.02,-63.6798 18.129,-82.8205 12.18,-19.1797 29.879,-28.75 53.121,-28.75 23.321,0 40.078,5.711 50.309,17.1914 10.199,11.5586 16.57,32.3399 19.07,62.3401 z" /><path
         id="path30"
         style="fill:#312925;fill-opacity:1;fill-rule:nonzero;stroke:none"
         d="m 1243.87,99.8008 h -120 L 1096.21,6.98828 h -45.94 L 1164.8,362.461 h 38.29 L 1317.93,6.98828 h -45.94 z m -108.28,38.5972 h 96.87 l -48.59,161.563 z" /><path
         id="path32"
         style="fill:#312925;fill-opacity:1;fill-rule:nonzero;stroke:none"
         d="m 1646.21,99.8008 h -120 L 1498.55,6.98828 h -45.93 L 1567.15,362.461 h 38.28 L 1720.27,6.98828 h -45.93 z m -108.28,38.5972 h 96.87 l -48.59,161.563 z" /><path
         id="path34"
         style="fill:#312925;fill-opacity:1;fill-rule:nonzero;stroke:none"
         d="m 2000.7,6.98828 h -44.84 L 1813.52,280.898 V 6.98828 h -45 V 362.461 h 45 L 1956.33,87.3008 V 362.461 h 44.37 z" /><path
         id="path36"
         style="fill:#312925;fill-opacity:1;fill-rule:nonzero;stroke:none"
         d="M 2078.09,6.98828 V 362.461 h 84.84 c 41.45,0 73.63,-12.973 96.56,-38.91 23.01,-25.93 34.53,-62.461 34.53,-109.531 v -59.532 c 0,-47.109 -11.68,-83.4372 -35,-109.0583 C 2235.78,19.8008 2202.03,6.98828 2157.77,6.98828 Z M 2122.77,323.871 V 45.2695 h 35.94 c 31.45,0 54.41,8.9922 68.91,27.0313 14.45,18.0078 21.87,44.6872 22.18,80.0002 v 62.969 c 0,37.39 -7.26,64.851 -21.71,82.351 -14.38,17.5 -36.1,26.25 -65.16,26.25 z" /><path
         id="path38"
         style="fill:#312925;fill-opacity:1;fill-rule:nonzero;stroke:none"
         d="m 2365.27,6.98828 h 44.6914 v 355.473 H 2365.27 Z" /><path
         id="path40"
         style="fill:#312925;fill-opacity:1;fill-rule:nonzero;stroke:none"
         d="m 2720.43,6.98828 h -44.84 L 2533.24,280.898 V 6.98828 h -45 V 362.461 h 45 L 2676.05,87.3008 V 362.461 h 44.38 z" /><path
         id="path42"
         style="fill:#312925;fill-opacity:1;fill-rule:nonzero;stroke:none"
         d="m 2968.48,99.8008 h -120 L 2820.82,6.98828 h -45.94 L 2889.41,362.461 h 38.29 L 3042.54,6.98828 H 2996.6 Z M 2860.2,138.398 h 96.87 l -48.59,161.563 z" /></g></g></svg>